<svg width="1535" height="1020" viewBox="0 0 1535 1020" fill="none" xmlns="http://www.w3.org/2000/svg">
<path d="M951.441 326.177C953.306 319.775 959.174 315.373 965.842 315.373H1107.64C1117.68 315.373 1124.89 325.047 1122.01 334.668L1083.53 463.457C1081.63 469.809 1075.79 474.162 1069.16 474.162H928.32C918.321 474.162 911.122 464.565 913.918 454.966L951.441 326.177Z" fill="url(#paint0_linear_7_2)"/>
<g filter="url(#filter0_d_7_2)">
<path d="M976.085 350.437C977.951 344.035 983.818 339.632 990.487 339.632H1132.29C1142.33 339.632 1149.53 349.306 1146.66 358.927L1108.17 487.716C1106.27 494.069 1100.43 498.422 1093.8 498.422H952.964C942.966 498.422 935.766 488.825 938.563 479.226L976.085 350.437Z" fill="url(#paint1_linear_7_2)"/>
</g>
<path d="M485.543 552.231C487.408 545.829 493.276 541.427 499.944 541.427H641.743C651.784 541.427 658.99 551.101 656.115 560.722L617.63 689.511C615.732 695.863 609.888 700.216 603.258 700.216H462.421C452.423 700.216 445.223 690.619 448.02 681.02L485.543 552.231Z" fill="url(#paint2_linear_7_2)"/>
<g filter="url(#filter1_d_7_2)">
<path d="M507.84 579.799C509.705 573.397 515.573 568.995 522.241 568.995H664.04C674.082 568.995 681.287 578.668 678.412 588.289L639.928 717.078C638.029 723.431 632.186 727.784 625.556 727.784H484.719C474.72 727.784 467.521 718.187 470.317 708.588L507.84 579.799Z" fill="url(#paint3_linear_7_2)"/>
</g>
<path d="M600.724 205.965C602.595 199.572 608.458 195.178 615.12 195.178H888.145C898.199 195.178 905.407 204.875 902.508 214.502L827.555 463.486C825.647 469.824 819.81 474.162 813.191 474.162H542.248C532.242 474.162 525.041 464.552 527.852 454.949L600.724 205.965Z" fill="url(#paint4_linear_7_2)"/>
<path d="M718.078 552.214C719.949 545.82 725.813 541.427 732.474 541.427H1005.5C1015.55 541.427 1022.76 551.124 1019.86 560.751L944.909 809.735C943.002 816.073 937.165 820.411 930.546 820.411H659.603C649.597 820.411 642.396 810.8 645.207 801.197L718.078 552.214Z" fill="url(#paint5_linear_7_2)"/>
<g filter="url(#filter2_d_7_2)">
<path d="M625.368 230.224C627.239 223.831 633.103 219.438 639.764 219.438H912.79C922.844 219.438 930.051 229.135 927.153 238.762L852.199 487.746C850.291 494.083 844.455 498.422 837.836 498.422H566.892C556.887 498.422 549.686 488.811 552.496 479.208L625.368 230.224Z" fill="url(#paint6_linear_7_2)"/>
</g>
<g filter="url(#filter3_d_7_2)">
<path d="M740.376 579.781C742.247 573.388 748.11 568.995 754.772 568.995H1027.8C1037.85 568.995 1045.06 578.691 1042.16 588.318L967.207 837.302C965.299 843.64 959.462 847.978 952.844 847.978H681.9C671.894 847.978 664.693 838.368 667.504 828.765L740.376 579.781Z" fill="url(#paint7_linear_7_2)"/>
</g>
<defs>
<filter id="filter0_d_7_2" x="933.955" y="339.632" width="217.341" height="166.789" filterUnits="userSpaceOnUse" color-interpolation-filters="sRGB">
<feFlood flood-opacity="0" result="BackgroundImageFix"/>
<feColorMatrix in="SourceAlpha" type="matrix" values="0 0 0 0 0 0 0 0 0 0 0 0 0 0 0 0 0 0 127 0" result="hardAlpha"/>
<feOffset dy="4"/>
<feGaussianBlur stdDeviation="2"/>
<feComposite in2="hardAlpha" operator="out"/>
<feColorMatrix type="matrix" values="0 0 0 0 0 0 0 0 0 0 0 0 0 0 0 0 0 0 0.25 0"/>
<feBlend mode="normal" in2="BackgroundImageFix" result="effect1_dropShadow_7_2"/>
<feBlend mode="normal" in="SourceGraphic" in2="effect1_dropShadow_7_2" result="shape"/>
</filter>
<filter id="filter1_d_7_2" x="465.709" y="568.995" width="217.341" height="166.789" filterUnits="userSpaceOnUse" color-interpolation-filters="sRGB">
<feFlood flood-opacity="0" result="BackgroundImageFix"/>
<feColorMatrix in="SourceAlpha" type="matrix" values="0 0 0 0 0 0 0 0 0 0 0 0 0 0 0 0 0 0 127 0" result="hardAlpha"/>
<feOffset dy="4"/>
<feGaussianBlur stdDeviation="2"/>
<feComposite in2="hardAlpha" operator="out"/>
<feColorMatrix type="matrix" values="0 0 0 0 0 0 0 0 0 0 0 0 0 0 0 0 0 0 0.25 0"/>
<feBlend mode="normal" in2="BackgroundImageFix" result="effect1_dropShadow_7_2"/>
<feBlend mode="normal" in="SourceGraphic" in2="effect1_dropShadow_7_2" result="shape"/>
</filter>
<filter id="filter2_d_7_2" x="547.883" y="219.438" width="383.917" height="286.984" filterUnits="userSpaceOnUse" color-interpolation-filters="sRGB">
<feFlood flood-opacity="0" result="BackgroundImageFix"/>
<feColorMatrix in="SourceAlpha" type="matrix" values="0 0 0 0 0 0 0 0 0 0 0 0 0 0 0 0 0 0 127 0" result="hardAlpha"/>
<feOffset dy="4"/>
<feGaussianBlur stdDeviation="2"/>
<feComposite in2="hardAlpha" operator="out"/>
<feColorMatrix type="matrix" values="0 0 0 0 0 0 0 0 0 0 0 0 0 0 0 0 0 0 0.25 0"/>
<feBlend mode="normal" in2="BackgroundImageFix" result="effect1_dropShadow_7_2"/>
<feBlend mode="normal" in="SourceGraphic" in2="effect1_dropShadow_7_2" result="shape"/>
</filter>
<filter id="filter3_d_7_2" x="662.891" y="568.995" width="383.917" height="286.984" filterUnits="userSpaceOnUse" color-interpolation-filters="sRGB">
<feFlood flood-opacity="0" result="BackgroundImageFix"/>
<feColorMatrix in="SourceAlpha" type="matrix" values="0 0 0 0 0 0 0 0 0 0 0 0 0 0 0 0 0 0 127 0" result="hardAlpha"/>
<feOffset dy="4"/>
<feGaussianBlur stdDeviation="2"/>
<feComposite in2="hardAlpha" operator="out"/>
<feColorMatrix type="matrix" values="0 0 0 0 0 0 0 0 0 0 0 0 0 0 0 0 0 0 0.25 0"/>
<feBlend mode="normal" in2="BackgroundImageFix" result="effect1_dropShadow_7_2"/>
<feBlend mode="normal" in="SourceGraphic" in2="effect1_dropShadow_7_2" result="shape"/>
</filter>
<linearGradient id="paint0_linear_7_2" x1="1018.05" y1="315.373" x2="1018.05" y2="474.162" gradientUnits="userSpaceOnUse">
<stop stop-color="#DFEAFB"/>
<stop offset="1" stop-color="#DFEAFB" stop-opacity="0"/>
</linearGradient>
<linearGradient id="paint1_linear_7_2" x1="1138.93" y1="419.027" x2="919.661" y2="481.543" gradientUnits="userSpaceOnUse">
<stop stop-color="#0063F7"/>
<stop offset="1" stop-color="#9DBFF9"/>
</linearGradient>
<linearGradient id="paint2_linear_7_2" x1="552.154" y1="541.427" x2="552.154" y2="700.216" gradientUnits="userSpaceOnUse">
<stop stop-color="#DFEAFB"/>
<stop offset="1" stop-color="#DFEAFB" stop-opacity="0"/>
</linearGradient>
<linearGradient id="paint3_linear_7_2" x1="476.46" y1="710.692" x2="722.115" y2="541.81" gradientUnits="userSpaceOnUse">
<stop stop-color="#0063F7"/>
<stop offset="1" stop-color="#9DBFF9"/>
</linearGradient>
<linearGradient id="paint4_linear_7_2" x1="715.277" y1="195.178" x2="715.277" y2="474.162" gradientUnits="userSpaceOnUse">
<stop stop-color="#DFEAFB"/>
<stop offset="1" stop-color="#DFEAFB" stop-opacity="0"/>
</linearGradient>
<linearGradient id="paint5_linear_7_2" x1="832.632" y1="541.427" x2="832.632" y2="820.411" gradientUnits="userSpaceOnUse">
<stop stop-color="#DFEAFB"/>
<stop offset="1" stop-color="#DFEAFB" stop-opacity="0"/>
</linearGradient>
<linearGradient id="paint6_linear_7_2" x1="637.236" y1="219.438" x2="892.263" y2="574.405" gradientUnits="userSpaceOnUse">
<stop stop-color="#0063F7"/>
<stop offset="1" stop-color="#9DBFF9"/>
</linearGradient>
<linearGradient id="paint7_linear_7_2" x1="961.135" y1="840.259" x2="711.454" y2="494.417" gradientUnits="userSpaceOnUse">
<stop stop-color="#0063F7"/>
<stop offset="1" stop-color="#9DBFF9"/>
</linearGradient>
</defs>
</svg>
